<?xml version="1.0" encoding="utf-8"?>
<!-- Generator: Adobe Illustrator 24.0.1, SVG Export Plug-In . SVG Version: 6.00 Build 0)  -->
<svg version="1.1" id="Capa_1" xmlns="http://www.w3.org/2000/svg" xmlns:xlink="http://www.w3.org/1999/xlink" x="0px" y="0px"
	 viewBox="0 0 512 512" style="enable-background:new 0 0 512 512;" xml:space="preserve">
<style type="text/css">
	.st0{fill:#6C757D;}
</style>
<g>
	<g>
		<polygon class="st0" points="151.6,183.5 114.2,285.7 187.4,285.7 		"/>
	</g>
</g>
<g>
	<g>
		<path class="st0" d="M380,226.4c-25.8,0-47.2,19.5-49.4,47.7h99.6C427.2,243.4,405.1,226.4,380,226.4z"/>
	</g>
</g>
<g>
	<g>
		<path class="st0" d="M0,0v512.6l512-0.6V0H0z M220.7,386l-24.2-64.8h-90.8L82,386H30l99.3-260h44.6l98.8,260H220.7z M479.7,305.8
			H331.3c0.7,7.6,8.9,48,50.9,48c27.2,0,42.3-18.2,45.4-26l42,11.7c-7.1,14.6-31.1,50.1-89.3,50.1c-61.3,0-101-45.4-101-98.5
			c0-47.7,33.1-100.3,101.4-100.3c48.8,0,100,32.4,100,98.5C480.7,292.5,480.1,303.9,479.7,305.8z"/>
	</g>
</g>
<rect x="229.7" y="386" class="st0" width="132.5" height="126.6"/>
</svg>
