<?xml version="1.0" encoding="utf-8"?>
<!-- Generator: Adobe Illustrator 24.0.1, SVG Export Plug-In . SVG Version: 6.00 Build 0)  -->
<svg version="1.1" id="Capa_1" xmlns="http://www.w3.org/2000/svg" xmlns:xlink="http://www.w3.org/1999/xlink" x="0px" y="0px"
	 viewBox="0 0 512 512" style="enable-background:new 0 0 512 512;" xml:space="preserve">
<style type="text/css">
	.st0{fill:#6C757D;}
</style>
<g>
	<g>
		<path class="st0" d="M0,0l0,512h512V0H0z M216.8,315.5h-61.7v87.3h-50.7V142.2H215c50.6,0,82.9,46.5,82.9,86.6
			C297.9,276.1,262,315.5,216.8,315.5z M377.5,286.4v116.4h-49.2V210.5h45.2v41.1c3.4-6.6,24.9-48,69.3-43.3V253l0,0
			C399.6,253.1,382.7,275.4,377.5,286.4z"/>
	</g>
</g>
<g>
	<g>
		<path class="st0" d="M211.6,186.7h-56.5v84.4h58.8c17.8,0,32.7-16.6,32.7-42.1C246.5,206.8,233.2,186.7,211.6,186.7z"/>
	</g>
</g>
</svg>
