<?xml version="1.0" encoding="utf-8"?>
<!-- Generator: Adobe Illustrator 24.0.1, SVG Export Plug-In . SVG Version: 6.00 Build 0)  -->
<svg version="1.1" id="Capa_1" xmlns="http://www.w3.org/2000/svg" xmlns:xlink="http://www.w3.org/1999/xlink" x="0px" y="0px"
	 viewBox="0 0 512 512" style="enable-background:new 0 0 512 512;" xml:space="preserve">
<style type="text/css">
	.st0{fill:#6C757D;}
</style>
<g>
	<g>
		<path class="st0" d="M0,0v512h512V0H0z M217.2,384.7l-24-64.3h-90l-23.6,64.3H28.1l98.4-257.8h44.2l98,257.8H217.2z M463.5,386.6
			c-3.2,0.2-6.3,0.3-8.9,0.3c-23.7,0-29.9-15.5-30.8-22.5l-1-15.3c-8.5,13.1-31.5,39.3-76.6,39.3c-38.8,0-59.9-25.6-59.9-74.8V194.4
			H335V303c0,29.3,10.5,43.9,31.6,43.9c28.1,0,43.4-22.8,49-34.5V194.4h48.6v134.3c0,5.1,0.5,13.9,11.6,14.5v41.3l0,0
			C470.8,385.7,466.8,386.2,463.5,386.6z"/>
	</g>
</g>
<g>
	<g>
		<polygon class="st0" points="148.6,183.9 111.6,285.2 184.2,285.2 		"/>
	</g>
</g>
</svg>
